<svg width="1200" height="600" viewBox="0 0 1200 600" fill="none" xmlns="http://www.w3.org/2000/svg">
  <defs>
    <linearGradient id="carBody" x1="0" y1="0" x2="1" y2="1">
      <stop offset="0%" stop-color="#0F172A"/>
      <stop offset="50%" stop-color="#111827"/>
      <stop offset="100%" stop-color="#000000"/>
    </linearGradient>
    <linearGradient id="glass" x1="0" y1="0" x2="1" y2="1">
      <stop offset="0%" stop-color="#DFF6FF" stop-opacity="0.9"/>
      <stop offset="100%" stop-color="#7DD3FC" stop-opacity="0.2"/>
    </linearGradient>
    <radialGradient id="wheelGlow" cx="50%" cy="50%" r="50%">
      <stop offset="0%" stop-color="#06B6D4" stop-opacity="0.8"/>
      <stop offset="100%" stop-color="#06B6D4" stop-opacity="0"/>
    </radialGradient>
    <filter id="shadow" x="-50%" y="-50%" width="200%" height="200%">
      <feDropShadow dx="0" dy="20" stdDeviation="20" flood-color="#000000" flood-opacity="0.25"/>
    </filter>
  </defs>
  <ellipse cx="600" cy="500" rx="280" ry="40" fill="url(#wheelGlow)" opacity="0.6"/>
  <g filter="url(#shadow)">
    <path d="M250 360C280 300 360 250 520 240H760C860 240 930 280 980 340L1040 360C1070 370 1090 390 1090 420V450C1090 470 1070 490 1040 490H980C970 520 940 550 890 550C840 550 800 520 790 490H420C410 520 370 550 320 550C270 550 230 520 220 490H180C150 490 130 470 130 440V410C130 390 150 370 180 360L250 360Z" fill="url(#carBody)"/>
    <path d="M300 350C360 290 470 260 690 260H760C850 260 900 290 940 340" stroke="#374151" stroke-width="8" stroke-linecap="round" opacity="0.5"/>
    <path d="M430 260H730C810 260 860 290 900 340H620L540 280H460L430 260Z" fill="url(#glass)"/>
    <rect x="930" y="355" width="70" height="18" rx="9" fill="#E0F2FE"/>
    <rect x="930" y="355" width="70" height="18" rx="9" fill="#06B6D4" opacity="0.35"/>
    <rect x="210" y="365" width="50" height="16" rx="8" fill="#FCA5A5" opacity="0.8"/>
    <circle cx="320" cy="490" r="62" fill="#111827"/>
    <circle cx="320" cy="490" r="34" fill="#6B7280"/>
    <circle cx="890" cy="490" r="62" fill="#111827"/>
    <circle cx="890" cy="490" r="34" fill="#6B7280"/>
    <g stroke="#D1D5DB" stroke-width="3" opacity="0.6">
      <line x1="320" y1="456" x2="320" y2="524"/>
      <line x1="286" y1="490" x2="354" y2="490"/>
      <line x1="890" y1="456" x2="890" y2="524"/>
      <line x1="856" y1="490" x2="924" y2="490"/>
    </g>
    <g fill="#FFFFFF" opacity="0.45">
      <circle cx="420" cy="340" r="4"/>
      <circle cx="470" cy="320" r="3"/>
      <circle cx="620" cy="310" r="5"/>
      <circle cx="740" cy="350" r="4"/>
      <circle cx="860" cy="330" r="3"/>
    </g>
  </g>
</svg>
